<?xml version="1.0" encoding="utf-8"?>
<!-- Generator: Adobe Illustrator 26.0.3, SVG Export Plug-In . SVG Version: 6.00 Build 0)  -->
<svg version="1.1" id="Layer_1" xmlns="http://www.w3.org/2000/svg" xmlns:xlink="http://www.w3.org/1999/xlink" x="0px" y="0px"
	 viewBox="0 0 471.1 65.5" style="enable-background:new 0 0 471.1 65.5;" xml:space="preserve">
<style type="text/css">
	.st0{fill:#111111;}
	.st1{fill:#0B67F9;}
</style>
<g>
	<path class="st0" d="M17.2,2.8v35.4c0,3.5,0.8,6.2,2.3,8.1c1.5,1.9,3.9,2.9,7.1,2.9s5.5-1,7.2-2.9c1.6-1.9,2.4-4.6,2.4-8.1V2.8
		h17.2v35.4c0,5.8-1.2,10.8-3.6,14.9c-2.4,4.1-5.6,7.2-9.7,9.3c-4.1,2.1-8.7,3.1-13.9,3.1c-5.1,0-9.7-1-13.6-3.1
		c-3.9-2-7-5.1-9.3-9.2C1.1,49.2,0,44.2,0,38.3V2.8H17.2z"/>
	<path class="st0" d="M96.7,19.8c3.9,3.2,6.3,7.3,7.3,12.5H87.8c-0.4-1.8-1.2-3.1-2.5-3.9c-1.3-0.9-2.8-1.3-4.6-1.3
		c-1.3,0-2.3,0.3-2.9,0.8c-0.7,0.6-1,1.3-1,2.3c0,1.2,0.7,2.1,2.1,2.8c1.4,0.6,3.8,1.3,7.1,2.1c3.8,0.8,6.9,1.7,9.4,2.6
		c2.5,0.9,4.6,2.5,6.5,4.6c1.8,2.1,2.8,4.9,2.8,8.5c0,2.9-0.8,5.4-2.4,7.6c-1.6,2.2-3.9,4-6.9,5.2c-3,1.3-6.6,1.9-10.7,1.9
		c-6.9,0-12.4-1.5-16.5-4.5c-4.1-3-6.6-7.3-7.5-12.8h16.6c0.2,1.8,1,3.2,2.3,4c1.3,0.9,3,1.3,5,1.3c1.3,0,2.4-0.3,3.1-0.9
		c0.7-0.6,1.1-1.3,1.1-2.3c0-1.4-0.7-2.4-2.2-3.1c-1.5-0.6-3.9-1.3-7.2-1.9c-3.7-0.8-6.8-1.6-9.2-2.5c-2.4-0.9-4.5-2.4-6.3-4.4
		c-1.8-2-2.7-4.8-2.7-8.4c0-4.4,1.7-8.1,5.2-10.9c3.5-2.8,8.4-4.2,14.7-4.2C87.6,15.1,92.8,16.7,96.7,19.8z"/>
	<path class="st0" d="M159.1,43.4h-32.5c0.3,5.6,2.7,8.3,7.3,8.3c1.7,0,3.1-0.4,4.2-1.2c1.1-0.8,1.9-1.9,2.3-3.2h18.2
		c-0.6,3.5-2.1,6.6-4.3,9.3c-2.2,2.8-5,5-8.4,6.5c-3.4,1.6-7.1,2.4-11.1,2.4c-4.9,0-9.3-1-13-3c-3.8-2-6.7-4.9-8.8-8.8
		c-2.1-3.8-3.2-8.3-3.2-13.5c0-5.1,1.1-9.6,3.2-13.4c2.1-3.8,5.1-6.7,8.9-8.7c3.8-2,8.1-3,13-3c4.9,0,9.2,1,13,3
		c3.7,2,6.7,4.8,8.7,8.5c2.1,3.7,3.1,8,3.1,12.8C159.5,40.6,159.3,42,159.1,43.4z M139.9,30.5c-1.4-1.3-3.2-1.9-5.3-1.9
		c-2.3,0-4.1,0.6-5.6,1.9c-1.4,1.3-2.3,3.2-2.5,5.7H142C142,33.7,141.3,31.8,139.9,30.5z"/>
	<path class="st0" d="M191,17.9c2.9-1.8,6-2.6,9.3-2.6v18.4h-5c-3.9,0-6.8,0.7-8.7,2.2c-1.9,1.5-2.9,4.1-2.9,7.8v21.2h-17.3V15.7
		h17.3v9.2C185.6,22,188.1,19.7,191,17.9z"/>
	<path class="st1" d="M223.3,44.1v20.8H206V2.8h25.8c7.5,0,13.2,1.9,17.2,5.7c3.9,3.8,5.9,8.8,5.9,15.1c0,3.9-0.9,7.4-2.6,10.5
		c-1.8,3.1-4.4,5.5-7.9,7.3c-3.5,1.8-7.7,2.7-12.6,2.7H223.3z M237.4,23.6c0-4.6-2.5-6.8-7.5-6.8h-6.6v13.8h6.6
		C234.9,30.5,237.4,28.2,237.4,23.6z"/>
	<path class="st1" d="M298.1,18.1c3.9,2,6.9,4.9,9.2,8.8c2.2,3.8,3.3,8.3,3.3,13.4c0,5.1-1.1,9.6-3.3,13.4c-2.2,3.8-5.3,6.7-9.2,8.8
		c-3.9,2-8.3,3.1-13.2,3.1s-9.3-1-13.2-3.1c-3.9-2-7-5-9.2-8.8c-2.2-3.8-3.3-8.3-3.3-13.4c0-5.1,1.1-9.6,3.3-13.4
		c2.2-3.8,5.3-6.7,9.2-8.7c3.9-2,8.3-3,13.2-3S294.2,16.1,298.1,18.1z M278.9,32.6c-1.6,1.8-2.4,4.3-2.4,7.6c0,3.4,0.8,6,2.4,7.7
		c1.6,1.8,3.6,2.6,6,2.6c2.3,0,4.3-0.9,5.9-2.7c1.6-1.8,2.4-4.3,2.4-7.7c0-3.3-0.8-5.9-2.4-7.6c-1.6-1.8-3.5-2.6-5.9-2.6
		C282.5,30,280.5,30.9,278.9,32.6z"/>
	<path class="st1" d="M342.1,17.9c2.9-1.8,6-2.6,9.3-2.6v18.4h-5c-3.9,0-6.8,0.7-8.7,2.2c-1.9,1.5-2.9,4.1-2.9,7.8v21.2h-17.3V15.7
		h17.3v9.2C336.7,22,339.1,19.7,342.1,17.9z"/>
	<path class="st1" d="M386.4,50.2v14.7h-7.1c-6,0-10.7-1.5-14.1-4.5c-3.4-3-5.1-7.9-5.1-14.8V30.1h-6.3V15.7h6.3V3.8h17.3v11.9h8.9
		v14.4h-8.9V46c0,1.5,0.3,2.6,1,3.2c0.7,0.6,1.8,1,3.4,1H386.4z"/>
	<path class="st1" d="M421.5,17.3c2.5,1.5,4.4,3.6,5.7,6.2v-7.8h17.2v49.2h-17.2v-7.8c-1.2,2.6-3.1,4.7-5.7,6.2
		c-2.5,1.5-5.5,2.2-9,2.2c-3.9,0-7.5-1-10.6-3c-3.2-2-5.6-4.9-7.5-8.8c-1.8-3.8-2.7-8.3-2.7-13.5c0-5.1,0.9-9.6,2.7-13.4
		c1.8-3.8,4.3-6.7,7.5-8.7c3.2-2,6.7-3,10.6-3C416,15.1,419,15.8,421.5,17.3z M411.7,32.9c-1.7,1.8-2.5,4.3-2.5,7.4
		c0,3.2,0.8,5.7,2.5,7.5c1.7,1.8,3.8,2.7,6.5,2.7c2.6,0,4.7-0.9,6.4-2.7c1.7-1.8,2.5-4.3,2.5-7.5c0-3.1-0.8-5.6-2.5-7.4
		c-1.7-1.8-3.8-2.7-6.4-2.7C415.5,30.2,413.3,31.1,411.7,32.9z"/>
	<path class="st1" d="M471.1,0v64.9h-17.3V0H471.1z"/>
</g>
</svg>
