<?xml version="1.0" encoding="utf-8"?>
<!-- Generator: Adobe Illustrator 26.0.3, SVG Export Plug-In . SVG Version: 6.00 Build 0)  -->
<svg version="1.1" id="Layer_1" xmlns="http://www.w3.org/2000/svg" xmlns:xlink="http://www.w3.org/1999/xlink" x="0px" y="0px"
	 viewBox="0 0 389.5 389.5" enable-background="new 0 0 389.5 389.5" xml:space="preserve">
<g>
	<path fill="#FFFFFF" d="M206.5,390.3c-7.6,0-15.2,0-22.8,0c-2.6-1.1-5.5-0.6-8.2-0.9c-41.7-4.7-78.5-20.6-109.7-48.6
		c-33.4-30-54.2-67.1-62-111.4c-1.3-7.3-2-14.7-3-22.1c0-7.6,0-15.2,0-22.8c0.2-1.3,0.6-2.7,0.7-4c0.5-8.3,1.8-16.6,3.6-24.7
		c10.3-46.9,34.3-85.4,72.6-114.3C124.7,5.9,177.8-6,235.6,5.9c47.1,9.7,85.2,34.4,114.3,72.6c30.8,40.5,43.6,86.6,38.6,137.1
		c-4,41.1-20,77.3-47.4,108.3c-30.1,34.1-67.6,55.2-112.4,63.3C221.3,388.7,213.9,389,206.5,390.3z M194.5,195.9
		c0,50.2,0.1,100.5-0.1,150.7c0,4,1.1,4.7,4.9,4.6c17.9-0.6,35.1-4,51.8-10.5c30.5-11.9,55-31.5,73.1-58.6
		c21-31.6,29.6-66.5,25.1-104.3c-4.2-35.8-19.3-66.7-44.9-91.9C275.3,57.1,240,42,198.9,40.6c-3.9-0.1-4.5,1.1-4.5,4.6
		C194.5,95.4,194.5,145.7,194.5,195.9z"/>
</g>
</svg>
